<?xml version="1.0" encoding="utf-8"?>
<!-- Generator: Adobe Illustrator 22.1.0, SVG Export Plug-In . SVG Version: 6.00 Build 0)  -->
<svg version="1.1" id="Ebene_1" xmlns="http://www.w3.org/2000/svg" xmlns:xlink="http://www.w3.org/1999/xlink" x="0px" y="0px"
	 width="49.5px" height="12.4px" viewBox="0 0 49.5 12.4" style="enable-background:new 0 0 49.5 12.4;" xml:space="preserve">
<g class="th-fill-default">
	<path style="fill: #13141d;" d="M23.4,2.2H25v6h3.1v1.5h-4.7V2.2z"/>
	<path style="fill: #13141d;" d="M29,2.2h1.7v7.5H29V2.2z"/>
	<path style="fill: #13141d;" d="M32.2,2.2h2.9c0.4,0,0.7,0,1.1,0.1c0.3,0.1,0.6,0.2,0.9,0.4c0.3,0.2,0.5,0.4,0.6,0.7C37.9,3.7,38,4.1,38,4.5
		c0,0.5-0.1,1-0.4,1.4s-0.7,0.6-1.2,0.7l1.9,3.2h-2l-1.6-3h-0.8v3h-1.7V2.2z M33.8,5.3h1c0.1,0,0.3,0,0.5,0s0.3,0,0.5-0.1
		C35.9,5.2,36,5.1,36.1,5s0.1-0.3,0.1-0.5c0-0.2,0-0.3-0.1-0.5c-0.1-0.1-0.2-0.2-0.3-0.3c-0.1-0.1-0.3-0.1-0.4-0.1
		c-0.2,0-0.3,0-0.5,0h-1.1V5.3z"/>
	<path style="fill: #13141d;" d="M38.7,6c0-0.6,0.1-1.2,0.3-1.6s0.5-0.9,0.8-1.3c0.4-0.3,0.8-0.6,1.3-0.8c0.5-0.2,1-0.3,1.6-0.3s1.1,0.1,1.6,0.3
		c0.5,0.2,0.9,0.4,1.3,0.8c0.4,0.3,0.6,0.8,0.8,1.3c0.2,0.5,0.3,1,0.3,1.6c0,0.6-0.1,1.2-0.3,1.6c-0.2,0.5-0.5,0.9-0.8,1.3
		c-0.4,0.3-0.8,0.6-1.3,0.8c-0.5,0.2-1,0.3-1.6,0.3s-1.1-0.1-1.6-0.3c-0.5-0.2-0.9-0.4-1.3-0.8c-0.4-0.3-0.6-0.8-0.8-1.3
		S38.7,6.6,38.7,6z M40.4,6c0,0.4,0.1,0.7,0.2,1s0.3,0.6,0.5,0.8s0.5,0.4,0.7,0.5c0.3,0.1,0.6,0.2,1,0.2s0.7-0.1,1-0.2
		c0.3-0.1,0.5-0.3,0.7-0.5s0.4-0.5,0.5-0.8c0.1-0.3,0.2-0.6,0.2-1c0-0.3-0.1-0.7-0.2-1c-0.1-0.3-0.3-0.6-0.5-0.8S44,3.9,43.7,3.7
		c-0.3-0.1-0.6-0.2-1-0.2s-0.7,0.1-1,0.2c-0.3,0.1-0.5,0.3-0.7,0.5S40.7,4.7,40.6,5S40.4,5.6,40.4,6z"/>
</g>
<g class="th-fill-primary">
	<path style="fill: #4b84fa;" d="M2.9,6.5V2.2h1.4v4.3H2.9z M8,2.2h1.5v2.5c0,1.8-0.4,3.1-1.3,4C7.3,9.6,6,10.1,4.1,10.3L3.8,9
		c1.6-0.2,2.7-0.6,3.3-1.2C7.7,7.2,8,6.2,8,4.7V2.2z"/>
	<path style="fill: #4b84fa;" d="M13.5,9.7H12V2.2h8.1v7.5H13.5z M13.5,8.5h5.2v-5h-5.2V8.5z"/>
</g>
</svg>
